<?xml version="1.0" encoding="utf-8"?>
<!-- Generator: Adobe Illustrator 19.0.0, SVG Export Plug-In . SVG Version: 6.00 Build 0)  -->
<svg version="1.1" xmlns="http://www.w3.org/2000/svg" xmlns:xlink="http://www.w3.org/1999/xlink" x="0px" y="0px"
	 viewBox="0 0 319.4 186.2" style="enable-background:new 0 0 319.4 186.2;" xml:space="preserve">
<style type="text/css">
	.st0{fill:none;stroke:#000000;stroke-width:3;stroke-miterlimit:10;}
</style>
<g id="Layer_1">
	<g id="XMLID_119_">
		<path id="XMLID_254_" d="M35.9,143.2c0-0.3-0.1-0.5-0.3-0.7c-0.3-0.3-0.7-0.5-1.4-0.1l-12.4,6.9l12.4,6.9c0.3,0.1,0.5,0.2,0.7,0.2
			c0.3,0,0.5-0.1,0.7-0.3c0.2-0.2,0.3-0.5,0.3-0.7c0-0.3-0.1-0.7-0.7-1l-9.1-5.1l9.1-5.1C35.8,143.9,35.9,143.5,35.9,143.2z"/>
		<path id="XMLID_257_" d="M50.4,143.3c-0.4-0.5-1.1-1-1.9-1.4c-0.8-0.4-1.7-0.6-2.7-0.6H40c-0.4,0-0.7,0.1-0.9,0.3
			c-0.2,0.2-0.3,0.5-0.3,0.8c0,0.3,0.1,0.6,0.3,0.8c0.2,0.2,0.5,0.3,0.9,0.3h0.4v11.8H40c-0.4,0-0.7,0.1-0.9,0.3
			c-0.2,0.2-0.3,0.5-0.3,0.8c0,0.3,0.1,0.6,0.3,0.7c0.2,0.2,0.5,0.3,0.9,0.3h5.8c1.2,0,2.3-0.3,3.2-0.9c1.2-0.8,2.1-1.8,2.6-2.9
			c0.5-1.1,0.8-2.2,0.8-3.4v-1.5c0-0.9-0.1-1.8-0.4-2.5C51.6,145.1,51.1,144.2,50.4,143.3z M50.3,148.3v1.9c0,0.7-0.2,1.5-0.5,2.2
			c-0.4,0.7-0.9,1.4-1.6,1.9c-0.7,0.5-1.4,0.8-2.2,0.8h-3.4v-11.8h3.4c0.6,0,1.2,0.1,1.7,0.4c0.5,0.3,0.9,0.6,1.2,0.9
			c0.5,0.6,0.9,1.3,1.2,2C50.2,147.2,50.3,147.7,50.3,148.3z"/>
		<path id="XMLID_258_" d="M66.9,141.3h-4c-0.4,0-0.7,0.1-0.9,0.3c-0.2,0.2-0.3,0.5-0.3,0.8c0,0.3,0.1,0.6,0.3,0.8
			c0.2,0.2,0.5,0.3,0.9,0.3h1.5v8.5c0,0.7-0.2,1.4-0.6,2c-0.4,0.6-0.8,1-1.4,1.3c-0.5,0.3-1.1,0.4-1.7,0.4c-1,0-1.8-0.4-2.5-1.1
			c-0.7-0.7-1.1-1.6-1.1-2.7v-8.5h1.5c0.4,0,0.7-0.1,0.9-0.3c0.2-0.2,0.3-0.5,0.3-0.8c0-0.3-0.1-0.6-0.3-0.8
			c-0.2-0.2-0.5-0.3-0.9-0.3h-4c-0.4,0-0.7,0.1-0.9,0.3c-0.2,0.2-0.3,0.5-0.3,0.8c0,0.3,0.1,0.6,0.3,0.8c0.2,0.2,0.5,0.3,0.9,0.3
			h0.4v8.5c0,1.1,0.3,2.1,0.9,3.1c0.6,0.9,1.3,1.6,2.1,2.1c0.8,0.5,1.7,0.7,2.8,0.7c1.6,0,2.9-0.6,4-1.7c1.1-1.1,1.6-2.5,1.6-4.1
			v-8.5h0.4c0.4,0,0.7-0.1,0.9-0.3c0.2-0.2,0.3-0.5,0.3-0.8c0-0.3-0.1-0.6-0.3-0.8C67.6,141.4,67.3,141.3,66.9,141.3z"/>
		<path id="XMLID_259_" d="M79.9,148.8c-0.6-0.3-1.6-0.5-3.1-0.8c-0.8-0.1-1.5-0.3-1.8-0.4c-0.4-0.1-0.7-0.3-1-0.5
			c-0.3-0.2-0.5-0.4-0.6-0.7c-0.2-0.3-0.2-0.6-0.2-0.9c0-0.7,0.3-1.3,0.9-1.8c0.6-0.5,1.4-0.8,2.5-0.8c1,0,1.8,0.2,2.4,0.7
			c0.6,0.5,0.9,1,0.9,1.6c0,0.4,0.1,0.6,0.3,0.8c0.4,0.4,1.1,0.4,1.5,0c0.2-0.2,0.3-0.5,0.3-0.9v-2.7c0-0.4-0.1-0.7-0.3-0.9
			c-0.4-0.4-1.1-0.4-1.5,0c-0.1,0.1-0.1,0.2-0.2,0.3c-1-0.7-2.2-1-3.5-1c-1.6,0-2.9,0.5-3.9,1.3c-1,0.9-1.5,2-1.5,3.3
			c0,1.3,0.5,2.3,1.4,3c0.9,0.7,2.2,1.2,4.1,1.5c1.6,0.3,2.2,0.5,2.4,0.6c0.5,0.2,0.9,0.5,1.1,0.9s0.4,0.8,0.4,1.2
			c0,0.8-0.3,1.4-1,2c-0.7,0.6-1.6,0.9-2.9,0.9c-1.2,0-2.2-0.3-2.9-0.9c-0.7-0.6-1-1.1-1.1-1.8c0-0.4-0.1-0.6-0.3-0.8
			c-0.4-0.4-1.1-0.4-1.5,0c-0.2,0.2-0.3,0.5-0.3,0.9v3c0,0.4,0.1,0.7,0.3,0.9c0.4,0.4,1.1,0.4,1.5,0c0.1-0.1,0.2-0.3,0.2-0.4
			c1.1,0.8,2.4,1.2,4,1.2c1.8,0,3.2-0.5,4.3-1.4c1.1-1,1.6-2.1,1.6-3.5c0-0.9-0.2-1.7-0.6-2.4C81.4,149.7,80.8,149.2,79.9,148.8z"/>
		<path id="XMLID_260_" d="M85.7,146.6c0,0.4,0.1,0.7,0.3,0.9c0.4,0.4,1.1,0.4,1.5,0c0.2-0.2,0.3-0.5,0.3-0.9v-3.2h3.4v11.8h-2.3
			c-0.4,0-0.7,0.1-0.9,0.3c-0.2,0.2-0.3,0.5-0.3,0.8c0,0.3,0.1,0.6,0.3,0.7c0.2,0.2,0.5,0.3,0.9,0.3h6.6c0.4,0,0.7-0.1,0.9-0.3
			c0.2-0.2,0.3-0.5,0.3-0.8c0-0.3-0.1-0.6-0.3-0.8c-0.2-0.2-0.5-0.3-0.9-0.3h-2.3v-11.8h3.4v3.2c0,0.4,0.1,0.7,0.3,0.9
			c0.4,0.4,1.1,0.4,1.5,0c0.2-0.2,0.3-0.5,0.3-0.9v-5.3h-13V146.6z"/>
		<path id="XMLID_261_" d="M112.1,143.4c0.4,0,0.7-0.1,0.9-0.3c0.2-0.2,0.3-0.5,0.3-0.8c0-0.3-0.1-0.6-0.3-0.8
			c-0.2-0.2-0.5-0.3-0.9-0.3h-8.4c-0.4,0-0.7,0.1-0.9,0.3c-0.2,0.2-0.3,0.5-0.3,0.8c0,0.3,0.1,0.6,0.3,0.8c0.2,0.2,0.5,0.3,0.9,0.3
			h3.2v11.8h-3.2c-0.4,0-0.7,0.1-0.9,0.3c-0.2,0.2-0.3,0.5-0.3,0.8c0,0.3,0.1,0.6,0.3,0.7c0.2,0.2,0.5,0.3,0.9,0.3h8.4
			c0.4,0,0.7-0.1,0.9-0.3c0.2-0.2,0.3-0.5,0.3-0.8c0-0.3-0.1-0.6-0.3-0.8c-0.2-0.2-0.5-0.3-0.9-0.3h-3.2v-11.8H112.1z"/>
		<path id="XMLID_262_" d="M129.7,141.3h-4c-0.4,0-0.7,0.1-0.9,0.3c-0.2,0.2-0.3,0.5-0.3,0.8c0,0.3,0.1,0.6,0.3,0.8
			c0.2,0.2,0.5,0.3,0.9,0.3h1.5v10l-7.1-12.1H117c-0.4,0-0.7,0.1-0.9,0.3c-0.2,0.2-0.3,0.5-0.3,0.8c0,0.3,0.1,0.6,0.3,0.8
			c0.2,0.2,0.5,0.3,0.9,0.3h0.9v11.8h-0.4c-0.4,0-0.7,0.1-0.9,0.3c-0.2,0.2-0.3,0.5-0.3,0.8c0,0.3,0.1,0.6,0.3,0.7
			c0.2,0.2,0.5,0.3,0.9,0.3h3.9c0.4,0,0.7-0.1,0.9-0.3c0.2-0.2,0.3-0.5,0.3-0.8c0-0.3-0.1-0.6-0.3-0.8c-0.2-0.2-0.5-0.3-0.9-0.3H120
			v-10l7.1,12h2.2v-13.9h0.4c0.4,0,0.7-0.1,0.9-0.3c0.2-0.2,0.3-0.5,0.3-0.8c0-0.3-0.1-0.6-0.3-0.8
			C130.4,141.4,130.1,141.3,129.7,141.3z"/>
		<path id="XMLID_263_" d="M157.7,155.2h-0.4v-11.8h0.2c0.4,0,0.7-0.1,0.9-0.3c0.2-0.2,0.3-0.5,0.3-0.8c0-0.3-0.1-0.6-0.3-0.8
			c-0.2-0.2-0.5-0.3-0.9-0.3h-3l-3.7,8.5l-3.7-8.5h-3c-0.4,0-0.7,0.1-0.9,0.3c-0.2,0.2-0.3,0.5-0.3,0.8c0,0.3,0.1,0.6,0.3,0.8
			c0.2,0.2,0.5,0.3,0.9,0.3h0.2v11.8h-0.4c-0.4,0-0.7,0.1-0.9,0.3c-0.2,0.2-0.3,0.5-0.3,0.8c0,0.3,0.1,0.6,0.3,0.7
			c0.2,0.2,0.5,0.3,0.9,0.3h4c0.4,0,0.7-0.1,0.9-0.3c0.2-0.2,0.3-0.5,0.3-0.8c0-0.3-0.1-0.6-0.3-0.8c-0.2-0.2-0.5-0.3-0.9-0.3h-1.5
			v-10.4l3.5,8h1.9l3.4-8v10.4h-1.5c-0.4,0-0.7,0.1-0.9,0.3c-0.2,0.2-0.3,0.5-0.3,0.8c0,0.3,0.1,0.6,0.3,0.8
			c0.2,0.2,0.5,0.3,0.9,0.3h3.9c0.4,0,0.7-0.1,0.9-0.3c0.2-0.2,0.3-0.5,0.3-0.8c0-0.3-0.1-0.6-0.3-0.8
			C158.3,155.3,158.1,155.2,157.7,155.2z"/>
		<path id="XMLID_264_" d="M161.9,153.8h-0.4c-0.5,0-1,0.2-1.3,0.5c-0.4,0.4-0.6,0.8-0.6,1.4c0,0.5,0.2,1,0.6,1.3
			c0.4,0.4,0.8,0.5,1.3,0.5h0.4c0.5,0,1-0.2,1.3-0.5c0.4-0.4,0.6-0.8,0.6-1.4c0-0.5-0.2-1-0.6-1.3
			C162.9,154,162.4,153.8,161.9,153.8z"/>
		<path id="XMLID_267_" d="M183.3,148.8c1-0.8,1.6-1.9,1.6-3.1c0-1.2-0.5-2.2-1.4-3.1c-0.9-0.9-2.1-1.3-3.6-1.3h-6.7
			c-0.4,0-0.7,0.1-0.9,0.3c-0.2,0.2-0.3,0.5-0.3,0.8c0,0.3,0.1,0.6,0.3,0.8c0.2,0.2,0.5,0.3,0.9,0.3h0.9v11.8h-0.9
			c-0.4,0-0.7,0.1-0.9,0.3c-0.2,0.2-0.3,0.5-0.3,0.8c0,0.3,0.1,0.6,0.3,0.7c0.2,0.2,0.5,0.3,0.9,0.3h8c0.9,0,1.8-0.2,2.5-0.7
			c0.8-0.5,1.4-1,1.7-1.7c0.4-0.7,0.6-1.4,0.6-2.2c0-0.9-0.3-1.8-0.9-2.5C184.7,149.6,184.1,149.1,183.3,148.8z M182.1,150.4
			c0.6,0.2,1,0.6,1.4,1c0.3,0.4,0.5,0.8,0.5,1.3c0,0.4-0.1,0.8-0.3,1.2s-0.6,0.7-1,1c-0.4,0.3-0.9,0.4-1.5,0.4h-4.9V150h3.4
			C180.6,150,181.5,150.2,182.1,150.4z M176.2,147.9v-4.6h3.7c0.9,0,1.6,0.2,2.1,0.7c0.5,0.5,0.8,1,0.8,1.5c0,0.4-0.1,0.7-0.4,1.1
			s-0.6,0.6-1,0.8c-0.6,0.3-1.3,0.4-2,0.4H176.2z"/>
		<path id="XMLID_271_" d="M201.8,155.2h-0.5c-1.1-2-2-3.2-2.5-3.9c-0.4-0.5-0.8-0.9-1.3-1.3c1-0.4,1.7-0.9,2.2-1.5
			c0.6-0.8,1-1.6,1-2.5c0-1.2-0.5-2.3-1.5-3.2c-1-0.9-2.3-1.4-3.7-1.4h-6.5c-0.4,0-0.7,0.1-0.9,0.3c-0.2,0.2-0.3,0.5-0.3,0.8
			c0,0.3,0.1,0.6,0.3,0.8c0.2,0.2,0.5,0.3,0.9,0.3h0.9v11.8h-0.9c-0.4,0-0.7,0.1-0.9,0.3c-0.2,0.2-0.3,0.5-0.3,0.8
			c0,0.3,0.1,0.6,0.3,0.7c0.2,0.2,0.5,0.3,0.9,0.3h4.5c0.4,0,0.7-0.1,0.9-0.3c0.2-0.2,0.3-0.5,0.3-0.8c0-0.3-0.1-0.6-0.3-0.8
			c-0.2-0.2-0.5-0.3-0.9-0.3h-1.5v-4.6h2.8c0.8,0.4,1.6,1,2.3,1.7c0.7,0.8,1.7,2.3,3,4.7l0.1,0.3h1.7c0.4,0,0.7-0.1,0.9-0.3
			c0.2-0.2,0.3-0.5,0.3-0.8c0-0.3-0.1-0.6-0.3-0.8C202.4,155.3,202.2,155.2,201.8,155.2z M198.1,147c-0.3,0.4-0.8,0.7-1.5,1
			c-0.7,0.3-1.5,0.5-2.3,0.5h-2.4v-5.1h3.4c0.9,0,1.7,0.3,2.3,0.8c0.6,0.6,0.9,1.1,0.9,1.7C198.5,146.3,198.4,146.6,198.1,147z"/>
		<path id="XMLID_274_" d="M219,155.2h-0.5l-5.2-13.9h-5.7c-0.4,0-0.7,0.1-0.9,0.3c-0.2,0.2-0.3,0.5-0.3,0.8c0,0.3,0.1,0.6,0.3,0.8
			c0.2,0.2,0.5,0.3,0.9,0.3h2.4l-4.4,11.8h-0.5c-0.4,0-0.7,0.1-0.9,0.3c-0.2,0.2-0.3,0.5-0.3,0.8c0,0.3,0.1,0.6,0.3,0.7
			c0.2,0.2,0.5,0.3,0.9,0.3h4c0.4,0,0.7-0.1,0.9-0.3c0.2-0.2,0.3-0.5,0.3-0.8c0-0.3-0.1-0.6-0.3-0.8c-0.2-0.2-0.5-0.3-0.9-0.3h-1.3
			l1.1-2.9h6.3l1.1,2.9H215c-0.4,0-0.7,0.1-0.9,0.3c-0.2,0.2-0.3,0.5-0.3,0.8c0,0.3,0.1,0.6,0.3,0.7c0.2,0.2,0.5,0.3,0.9,0.3h4
			c0.4,0,0.7-0.1,0.9-0.3c0.2-0.2,0.3-0.5,0.3-0.8c0-0.3-0.1-0.6-0.3-0.8C219.7,155.3,219.4,155.2,219,155.2z M214.5,150.2h-4.8
			l2.4-6.4L214.5,150.2z"/>
		<path id="XMLID_277_" d="M233,143.3c-0.4-0.5-1.1-1-1.9-1.4c-0.8-0.4-1.7-0.6-2.7-0.6h-5.8c-0.4,0-0.7,0.1-0.9,0.3
			c-0.2,0.2-0.3,0.5-0.3,0.8c0,0.3,0.1,0.6,0.3,0.8c0.2,0.2,0.5,0.3,0.9,0.3h0.4v11.8h-0.4c-0.4,0-0.7,0.1-0.9,0.3
			c-0.2,0.2-0.3,0.5-0.3,0.8c0,0.3,0.1,0.6,0.3,0.7c0.2,0.2,0.5,0.3,0.9,0.3h5.8c1.2,0,2.3-0.3,3.2-0.9c1.2-0.8,2.1-1.8,2.6-2.9
			c0.5-1.1,0.8-2.2,0.8-3.4v-1.5c0-0.9-0.1-1.8-0.4-2.5C234.2,145.1,233.7,144.2,233,143.3z M232.9,148.3v1.9c0,0.7-0.2,1.5-0.5,2.2
			c-0.4,0.7-0.9,1.4-1.6,1.9c-0.7,0.5-1.4,0.8-2.2,0.8h-3.4v-11.8h3.4c0.6,0,1.2,0.1,1.7,0.4c0.5,0.3,0.9,0.6,1.2,0.9
			c0.5,0.6,0.9,1.3,1.2,2C232.8,147.2,232.9,147.7,232.9,148.3z"/>
		<path id="XMLID_278_" d="M248,150.5c-0.2,0.2-0.3,0.5-0.3,0.9v3.8h-6.1v-11.8h2.1c0.4,0,0.7-0.1,0.9-0.3c0.2-0.2,0.3-0.5,0.3-0.8
			c0-0.3-0.1-0.6-0.3-0.8c-0.2-0.2-0.5-0.3-0.9-0.3h-6.2c-0.4,0-0.7,0.1-0.9,0.3c-0.2,0.2-0.3,0.5-0.3,0.8c0,0.3,0.1,0.6,0.3,0.8
			c0.2,0.2,0.5,0.3,0.9,0.3h2.1v11.8h-2.1c-0.4,0-0.7,0.1-0.9,0.3c-0.2,0.2-0.3,0.5-0.3,0.8c0,0.3,0.1,0.6,0.3,0.7
			c0.2,0.2,0.5,0.3,0.9,0.3h12.3v-5.8c0-0.4-0.1-0.7-0.3-0.9C249.1,150.1,248.4,150.1,248,150.5z"/>
		<path id="XMLID_279_" d="M263.1,151.6c-0.2,0.2-0.3,0.5-0.3,0.9v2.7h-7.2V150h2.8v0.7c0,0.4,0.1,0.7,0.3,0.9
			c0.4,0.4,1.1,0.4,1.5,0c0.2-0.2,0.3-0.5,0.3-0.9v-3.5c0-0.4-0.1-0.7-0.3-0.9c-0.4-0.4-1.1-0.4-1.5,0c-0.2,0.2-0.3,0.5-0.3,0.9v0.7
			h-2.8v-4.6h6.7v2.1c0,0.4,0.1,0.7,0.3,0.9c0.4,0.4,1.1,0.4,1.5,0c0.2-0.2,0.3-0.5,0.3-0.9v-4.2h-11.8c-0.4,0-0.7,0.1-0.9,0.3
			c-0.2,0.2-0.3,0.5-0.3,0.8c0,0.3,0.1,0.6,0.3,0.8c0.2,0.2,0.5,0.3,0.9,0.3h0.9v11.8h-0.9c-0.4,0-0.7,0.1-0.9,0.3
			c-0.2,0.2-0.3,0.5-0.3,0.8c0,0.3,0.1,0.6,0.3,0.7c0.2,0.2,0.5,0.3,0.9,0.3h12.3v-4.7c0-0.4-0.1-0.7-0.3-0.9
			C264.3,151.2,263.5,151.2,263.1,151.6z"/>
		<path id="XMLID_280_" d="M280.1,141.3h-2.9c-0.4,0-0.7,0.1-0.9,0.3c-0.2,0.2-0.3,0.5-0.3,0.8c0,0.3,0.1,0.6,0.3,0.8
			c0.2,0.2,0.5,0.3,0.9,0.3h0.1l-3,4.6l-3.1-4.6h0.1c0.4,0,0.7-0.1,0.9-0.3c0.2-0.2,0.3-0.5,0.3-0.8c0-0.3-0.1-0.6-0.3-0.8
			c-0.2-0.2-0.5-0.3-0.9-0.3h-2.9c-0.4,0-0.7,0.1-0.9,0.3c-0.2,0.2-0.3,0.5-0.3,0.8c0,0.3,0.1,0.6,0.3,0.8c0.2,0.2,0.5,0.3,0.9,0.3
			h0.4l4.5,6.8v5H271c-0.4,0-0.7,0.1-0.9,0.3c-0.2,0.2-0.3,0.5-0.3,0.8c0,0.3,0.1,0.6,0.3,0.7c0.2,0.2,0.5,0.3,0.9,0.3h6.6
			c0.4,0,0.7-0.1,0.9-0.3c0.2-0.2,0.3-0.5,0.3-0.8c0-0.3-0.1-0.6-0.3-0.8c-0.2-0.2-0.5-0.3-0.9-0.3h-2.3v-5l4.4-6.8h0.4
			c0.4,0,0.7-0.1,0.9-0.3c0.2-0.2,0.3-0.5,0.3-0.8c0-0.3-0.1-0.6-0.3-0.8C280.8,141.4,280.5,141.3,280.1,141.3z"/>
		<path id="XMLID_281_" d="M285.2,142.4c-0.7-0.4-1.1-0.2-1.4,0.1c-0.2,0.2-0.3,0.5-0.3,0.7c0,0.3,0.1,0.7,0.7,1l9.1,5.1l-9.1,5.1
			c-0.6,0.3-0.7,0.7-0.7,1c0,0.3,0.1,0.5,0.3,0.7s0.5,0.3,0.7,0.3c0.2,0,0.4-0.1,0.7-0.2l12.4-6.9L285.2,142.4z"/>
	</g>
</g>
<g id="Layer_2">
	<path id="XMLID_117_" d="M161.8,80.9l18.1-18.1c0.5-0.5,0.5-1.2,0-1.7l-0.4-0.4c-0.5-0.5-1.2-0.5-1.7,0l-16.5,16.5V51.7
		c0-0.3,0.3-0.5,0.6-0.4l1.7,0.7c0.4,0.2,0.7-0.2,0.6-0.6l-4.1-9.6c-0.2-0.4-0.7-0.4-0.8,0l-4.1,9.6c-0.2,0.4,0.2,0.7,0.6,0.6
		l1.7-0.7c0.3-0.1,0.6,0.1,0.6,0.4v25.4l-16.5-16.5c-0.5-0.5-1.2-0.5-1.7,0l-0.4,0.4c-0.5,0.5-0.5,1.2,0,1.7l18.1,18.1L139.5,99
		c-0.5,0.5-0.5,1.2,0,1.7l0.4,0.4c0.5,0.5,1.2,0.5,1.7,0l16.5-16.5v25.4c0,0.3-0.3,0.5-0.6,0.4l-1.7-0.7c-0.4-0.2-0.7,0.2-0.6,0.6
		l4.1,9.6c0.2,0.4,0.7,0.4,0.8,0l4.1-9.6c0.2-0.4-0.2-0.7-0.6-0.6l-1.7,0.7c-0.3,0.1-0.6-0.1-0.6-0.4V84.6l16.5,16.5
		c0.5,0.5,1.2,0.5,1.7,0l0.4-0.4c0.5-0.5,0.5-1.2,0-1.7L161.8,80.9z"/>
	<g id="XMLID_111_">
		<path id="XMLID_112_" d="M119.9,68.4c0-0.5,0.4-0.9,0.9-0.9h6.2c5.1,0.1,8.8,1.4,11,4c2.2,2.6,3.3,6,3.3,10.3
			c-0.1,5.1-1.6,8.8-4.6,11c-3,2.2-6.9,3.3-11.8,3.3h-4.1c-0.5,0-0.9-0.4-0.9-0.9V68.4z M122.7,92.7c0,0.5,0.4,0.9,0.9,0.9h1.4
			c8.7,0.2,13.2-3.8,13.4-12.1c-0.1-4.3-1.2-7.4-3.4-9.1c-2.2-1.7-5-2.5-8.2-2.5h-3.2c-0.5,0-0.9,0.4-0.9,0.9V92.7z"/>
	</g>
	<g id="XMLID_106_">
		<path id="XMLID_107_" d="M183,68.4c0-0.5,0.4-0.9,0.9-0.9h5.9c2.4,0,4.5,0.5,6.3,1.4c1.8,1,2.7,2.9,2.7,5.6c0,3.6-1.7,5.8-5.2,6.5
			v0.1c1.8,0.3,3.3,1.1,4.4,2.2c1.1,1.1,1.7,2.7,1.7,4.6c-0.1,3.1-1.1,5.2-3.3,6.4c-1,0.6-2.1,1.1-3.5,1.4c-1.3,0.3-2.7,0.4-4.3,0.4
			h-4.8c-0.5,0-0.9-0.4-0.9-0.9V68.4z M185.8,92.7c0,0.5,0.4,0.9,0.9,0.9h2.1c1,0,2-0.1,2.9-0.3c1-0.2,1.8-0.4,2.6-0.8
			c0.8-0.4,1.4-1,1.9-1.7c0.5-0.7,0.7-1.7,0.7-2.7c0-1.3-0.2-2.3-0.7-3.1c-0.5-0.8-1.1-1.3-2-1.7c-0.8-0.4-1.7-0.6-2.7-0.7
			c-1-0.1-2.1-0.1-3.2-0.1h-1.6c-0.5,0-0.9,0.4-0.9,0.9V92.7z M185.9,79.1c0,0.5,0.4,0.9,0.9,0.9h2.3c0.8,0,1.6-0.1,2.4-0.2
			c0.8-0.1,1.5-0.4,2.2-0.7c0.7-0.4,1.3-1,1.7-1.6c0.4-0.7,0.7-1.6,0.7-2.7c0-1.1-0.2-1.9-0.6-2.5c-0.4-0.6-1-1.1-1.6-1.4
			c-0.6-0.3-1.3-0.5-2-0.7c-0.7-0.1-1.4-0.1-2.1-0.1h-3c-0.5,0-0.9,0.4-0.9,0.9V79.1z"/>
	</g>
	<path id="XMLID_105_" class="st0" d="M145.5,126.2h28.4c1.8,0,3.5-0.7,4.8-2l31-31c6.2-6.2,6.2-16.4,0-22.6l-34.2-34.2
		c-1.3-1.3-3-2-4.8-2h-21.8c-1.8,0-3.5,0.7-4.8,2l-34.2,34.2c-6.2,6.2-6.2,16.4,0,22.6l31,31C142,125.4,143.7,126.2,145.5,126.2z"/>
</g>
</svg>
